<svg width="185.208" height="185.208" xmlns="http://www.w3.org/2000/svg"><path fill="none" d="M-1-1h582v402H-1z"/><path fill="none" stroke="#000" stroke-width="9.26" stroke-linecap="round" stroke-linejoin="round" stroke-miterlimit="6.2" d="M779.662-2243.48c3.399-2.538 2.999-7.829 0-10.828l-36.204-36.204c-3-3-7.828-3-10.828 0l-58.716 58.615-58.638 58.536c-3.026 18.771-6.131 37.622-9.157 56.394l56.182-9.369c30.372-30.373 44.725-44.67 59.21-59.103a36013.29 36013.29 0 0058.15-58.041z"/><rect y="1035.05" x="-2117.996" width="11.067" transform="rotate(135)" ry="5.082" height="67.307"/><path d="M639.693-2117.791l-32.298-32.299-1.276 33.123 33.574-.824z"/><rect y="1035.473" x="-1984.285" width="11.067" transform="rotate(135)" ry="5.082" height="67.307"/><ellipse ry="5.342" rx="5.334" cy="-2251.618" cx="-131.108"/><path fill="none" stroke="#000" stroke-width="9.26" stroke-linecap="round" stroke-linejoin="round" d="M-131.108-2233.796v37.858"/><path fill="none" stroke="#000" stroke-width="9.26" stroke-linecap="round" stroke-linejoin="round" stroke-miterlimit="6.2" d="M-215.274-2278.595a3.806 3.806 0 00-3.808 3.822v103.568a3.807 3.807 0 003.808 3.823h23.24v36.286l71.375-36.286h73.718a3.807 3.807 0 003.807-3.823v-103.568a3.807 3.807 0 00-3.807-3.822h-168.333z"/><path fill="none" stroke="#000" stroke-width="9.26" stroke-linecap="round" stroke-linejoin="round" d="M-1049.366-945.194h41.123l69.633-108.803h65.031m0 0l-39.659-19.994m39.659 19.994l-39.659 19.993m39.659 88.81l-39.659-19.993m39.659 19.993l-39.659 19.993"/><path fill="none" stroke="#000" stroke-width="9.26" stroke-linecap="round" stroke-linejoin="round" d="M-1049.413-1053.99h41.123l69.633 108.803h65.031"/><path fill="none" stroke="#000" stroke-width="9.26" stroke-linecap="round" stroke-linejoin="round" stroke-miterlimit="6.2" d="M-1019.807-1476.418h104.673a6.063 6.063 0 016.088 6.065v144.094a6.063 6.063 0 01-6.088 6.064h-104.673a6.063 6.063 0 01-6.089-6.064v-144.094a6.063 6.063 0 016.089-6.065z"/><path fill="none" stroke="#000" stroke-width="9.26" stroke-linecap="round" stroke-linejoin="round" d="M-1025.45-1490.835h116.316m-91.386 34.593v115.871m33.05-115.871v115.871m33.05-115.871v115.871m-49.951-155.771h34.159"/><path fill="none" stroke="#000" stroke-width="9.26" stroke-linecap="round" stroke-linejoin="round" stroke-miterlimit="6.2" d="M-2106.14-1372.404v50.635c0 1.264-.843 2.28-1.89 2.28h-172.173c-1.047 0-1.89-1.016-1.89-2.28v-50.635"/><path fill="none" stroke="#000" stroke-width="9.26" stroke-linecap="round" stroke-linejoin="round" d="M-2194.117-1496.783v150.835m0 0l-43.481-44.424m43.481 44.424l43.482-44.424m352.274 70.094v-175.781m35.143 175.881h-70.286m70.286-175.981h-70.286"/><path fill="none" stroke="#fff" stroke-width="9.26" stroke-linecap="round" stroke-linejoin="round" d="M4.693 92.604h175.823"/><path stroke="#fff" stroke-width="9.26" stroke-linecap="round" stroke-linejoin="round" d="M4.693 33.419h175.823"/><path fill="none" stroke="#fff" stroke-width="9.26" stroke-linecap="round" stroke-linejoin="round" d="M4.693 151.79h175.823"/><path fill="none" stroke="#000" stroke-width="6.482" stroke-linecap="round" stroke-linejoin="round" stroke-miterlimit="6.2" d="M732.026-1815.198v123.636H595.724v-175.666h83.798"/><path fill="none" stroke="#000" stroke-width="6.482" stroke-linecap="round" stroke-linejoin="round" d="M730.212-1813.4h-50.69a1.802 1.802 0 01-1.815-1.798v-50.232c0-.996.81-1.798 1.815-1.798l52.504 52.03c0 .996-.809 1.798-1.814 1.798z"/><path fill="none" stroke="#000" stroke-width="8.073" stroke-linecap="round" stroke-linejoin="round" stroke-miterlimit="6.2" d="M-454.314-1444.03v123.84H-590.59v-175.957h83.781"/><path fill="none" stroke="#000" stroke-width="8.073" stroke-linecap="round" stroke-linejoin="round" d="M-456.129-1442.23h-50.68a1.804 1.804 0 01-1.814-1.8v-50.315c0-.998.809-1.802 1.814-1.802l52.495 52.117c0 .997-.81 1.8-1.815 1.8z"/><path fill="none" stroke="#000" stroke-width="6.618" stroke-linecap="round" stroke-linejoin="round" d="M-560.677-1381.207h78.8m-78.8-28.956h78.8m-78.8 57.913h78.8"/><path fill="none" stroke="#000" stroke-width="9.26" stroke-linejoin="round" d="M-630.532-1867.369h131.961l43.987 43.987v131.961h-175.948v-175.948z"/><path fill="none" stroke="#000" stroke-width="9.26" stroke-linejoin="round" d="M-578.897-1867.369h72.677v47.425h-72.677z"/><path fill="none" stroke="#000" stroke-width="9.26" stroke-linecap="round" stroke-linejoin="round" d="M-528.621-1851.633v15.495"/><path fill="none" stroke="#000" stroke-width="9.26" stroke-linejoin="round" d="M-599.363-1762.364h113.61v70.942h-113.61z"/><path fill="none" stroke="#000" stroke-width="8.037" stroke-linecap="round" stroke-linejoin="round" d="M-505.148-1739.74h-74.82m74.82 25.695h-74.82"/><path fill="none" stroke="#000" stroke-width="9.26" stroke-linejoin="round" stroke-miterlimit="6.2" d="M1199.588-2252.592v22.493m-104.458 0v-62.72h64.22"/><path fill="none" stroke="#000" stroke-width="9.26" stroke-linecap="round" stroke-linejoin="round" d="M1198.197-2251.202h-38.847c-.77 0-1.39-.62-1.39-1.39v-38.837c0-.77.62-1.39 1.39-1.39l40.238 40.227c0 .77-.62 1.39-1.391 1.39zm8.403 38.427h12.751"/><path fill="none" stroke="#000" stroke-width="9.26" stroke-linejoin="round" d="M1095.706-2164.5h-36.321v-64.503h175.948v64.504h-33.492"/><path fill="none" stroke="#000" stroke-width="9.26" stroke-linecap="round" stroke-linejoin="round" d="M1117.189-2156.841h60.34m-60.34 18.852h60.34"/><path fill="none" stroke="#000" stroke-width="9.26" stroke-linejoin="round" d="M1094.291-2177.959h106.135v61.087h-106.135z"/><path fill="none" stroke="#000" stroke-width="9.26" stroke-linecap="round" stroke-linejoin="round" d="M-1886.288-561.238l175.854-175.855m-175.854 0l175.854 175.855"/><ellipse fill="none" stroke="#000" stroke-width="9.26" stroke-linecap="round" stroke-linejoin="round" transform="rotate(-45.005)" ry="56.435" rx="57.372" cy="-2553.731" cx="608.063"/><path fill="none" stroke="#000" stroke-width="9.26" stroke-linecap="round" stroke-linejoin="round" d="M-1256.643-2116.92l-79.106-79.121"/><path fill="none" stroke="#000" stroke-width="9.26" stroke-linecap="round" stroke-linejoin="round" stroke-miterlimit="6.2" d="M304.353-1849.053h-35.148v-18.316h35.148v18.316zm53.861 157.632h-142.87v-157.632h142.87v157.632z"/><path fill="none" stroke="#000" stroke-width="9.26" stroke-linecap="round" stroke-linejoin="round" stroke-miterlimit="6.2" d="M331.796-1836.45h-90.033v-6.89h90.033v6.89z"/><path fill="none" stroke="#000" stroke-width="7.957" stroke-linecap="round" stroke-linejoin="round" d="M247.284-1779.742h79.654m-79.654-28.632h79.654m-79.654 57.264h79.654m-80.318 28.631h79.655"/><ellipse fill="none" stroke="#000" stroke-width="9.261" stroke-linecap="round" stroke-linejoin="round" transform="matrix(.5075 -.86165 .8703 .49253 0 0)" ry="23.822" rx="23.977" cy="-1944.412" cx="559.068"/><path fill="none" stroke="#000" stroke-width="9.26" stroke-linecap="round" stroke-linejoin="round" d="M-1355.474-1408.168l-32.842-18.587"/><ellipse fill="none" stroke="#000" stroke-width="9.261" stroke-linecap="round" stroke-linejoin="round" transform="matrix(.5075 .86165 .8703 -.49253 0 0)" ry="23.822" rx="23.977" cy="-514.893" cx="-1892.34"/><path fill="none" stroke="#000" stroke-width="9.26" stroke-linecap="round" stroke-linejoin="round" d="M-1355.474-1408.168l-32.842 18.586m32.849-18.583l98.805-29.777m-98.805 29.777l98.805 29.777"/><path fill="none" stroke="#000" stroke-width="22.997" stroke-linecap="round" stroke-linejoin="round" d="M-2258.484-707.817v-29.26m0 175.822v-99.398m64.367 19.62v-96.043m.001 175.821v-32.615m64.366-93.24v-49.966m.001 175.821v-78.69"/><path fill="none" stroke="#000" stroke-width="9.26" stroke-linecap="round" stroke-linejoin="round" stroke-miterlimit="6.2" d="M-2246.171-1867.371h116.03v175.953h-116.03z"/><path fill="none" stroke="#000" stroke-width="9.26" stroke-linecap="round" stroke-linejoin="round" d="M-2196.162-1779.395h132.043m-.001 0l-38.889 38.051m38.889-38.051l-38.889-38.051"/><path fill="none" stroke="#000" stroke-width="9.26" stroke-linecap="round" stroke-linejoin="round" stroke-miterlimit="6.2" d="M-1866.525-1867.371h116.03v175.953h-116.03z"/><path fill="none" stroke="#000" stroke-width="9.26" stroke-linecap="round" stroke-linejoin="round" d="M-1684.474-1779.395h-132.042m0 0l38.89 38.051m-38.89-38.051l38.89-38.051"/><path fill="none" stroke="#000" stroke-width="9.26" stroke-linecap="round" stroke-linejoin="round" stroke-miterlimit="6.2" d="M-2472.024-1372.404v50.635c0 1.264-.843 2.28-1.89 2.28h-172.173c-1.048 0-1.89-1.016-1.89-2.28v-50.635"/><path fill="none" stroke="#000" stroke-width="9.26" stroke-linecap="round" stroke-linejoin="round" d="M-2560-1345.948v-150.835m0 0l-43.482 44.424m43.482-44.424l43.48 44.424m3052.892 451.161h175.782m-555.041-19.564h175.782m-87.891-87.892v175.783"/><ellipse fill="none" stroke="#000" stroke-width="9.26" stroke-linecap="round" stroke-linejoin="round" transform="rotate(-45.005)" ry="56.435" rx="57.372" cy="-3413.253" cx="-251.459"/><path fill="none" stroke="#000" stroke-width="9.26" stroke-linecap="round" stroke-linejoin="round" d="M-2472.077-2116.921l-79.106-79.12m-77.967-39.893h76.099m-38.049-38.05v76.1"/><ellipse fill="none" stroke="#000" stroke-width="9.26" stroke-linecap="round" stroke-linejoin="round" transform="rotate(-45.005)" ry="56.435" rx="57.372" cy="-2874.642" cx="287.152"/><path fill="none" stroke="#000" stroke-width="9.26" stroke-linecap="round" stroke-linejoin="round" d="M-1710.437-2116.921l-79.106-79.12m-77.967-39.893h76.098"/><ellipse fill="none" stroke="#000" stroke-width="9.26" stroke-linecap="round" stroke-linejoin="round" transform="rotate(-45.005)" ry="56.435" rx="57.372" cy="-3154.51" cx="7.284"/><path fill="none" stroke="#000" stroke-width="9.26" stroke-linecap="round" stroke-linejoin="round" d="M-2106.193-2116.921l-79.105-79.12"/><path fill="none" stroke="#000" stroke-width="9.26" stroke-linecap="round" stroke-linejoin="round" stroke-miterlimit="6.2" d="M-2647.975-715.139h153.947v153.947h-153.947z"/><path fill="none" stroke="#000" stroke-width="9.26" stroke-linecap="round" stroke-linejoin="round" stroke-miterlimit="6.2" d="M-2625.974-715.139v-22h153.947v153.947h-22"/><path fill="none" stroke="#000" stroke-width="9.26" stroke-linecap="round" stroke-linejoin="round" d="M324.531-1342.516h-71.21c-61.035 0-61.035-93.208 5.202-93.208h125.551m0 0l-38.89 38.051m38.89-38.051l-38.89-38.051m-504.666 131.259h71.21c61.035 0 61.035-93.208-5.201-93.208h-125.552m.001 0l38.889 38.051m-38.889-38.051l38.889-38.051M-1380.45-985.026l-95.204 87.928m95.204-87.928l-95.204-87.929m-1131.949 71.757l95.204 87.928m-95.204-87.928l95.204-87.929"/><path fill="none" stroke="#000" stroke-width="9.027" stroke-linecap="round" stroke-linejoin="round" d="M-221.344-1048.497l39.901 39.027m-39.901-39.027l39.901-39.027"/><path fill="none" stroke="#000" stroke-width="9.26" d="M-221.392-980.059c0 27.68 16.681 52.636 42.264 63.229 25.583 10.593 55.03 4.738 74.611-14.836 19.58-19.573 25.438-49.01 14.841-74.583-10.597-25.574-35.13-42.246-62.82-42.246l-68.843.003"/><path fill="none" stroke="#000" stroke-width="9.26" stroke-linecap="round" stroke-linejoin="round" d="M-1270.8-661.27h-175.95l90.043-75.866 85.907 75.866zm-106.818 100.074h-46.533V-661.27h129.18v100.074h-46.533m-36.114-.118v-48.06h36.114v48.06"/><path fill="none" stroke="#000" stroke-width="9.027" stroke-linecap="round" stroke-linejoin="round" d="M-520.548-1082.364l-39.9 39.027m39.9-39.027l-39.9-39.026"/><path fill="none" stroke="#000" stroke-width="9.26" d="M-520.5-1013.926c0 27.681-16.68 52.636-42.264 63.23-25.583 10.592-55.03 4.737-74.61-14.836-19.581-19.574-25.439-49.01-14.842-74.584 10.597-25.574 35.13-42.245 62.821-42.245l68.842.003"/><path fill="none" stroke="#000" stroke-width="9.26" stroke-linecap="round" stroke-linejoin="round" d="M338.256-2162.747l20.05 20.05M234.01-2266.994l20.05 20.05m0 84.197l-20.05 20.05m124.296-124.297l-20.05 20.05"/><ellipse fill="none" stroke="#000" stroke-width="9.26" stroke-linecap="round" stroke-linejoin="round" transform="rotate(-90.006) skewX(-.011)" ry="31.635" rx="31.199" cy="646.352" cx="1408.227"/><path fill="none" stroke="#000" stroke-width="9.26" stroke-linecap="round" stroke-linejoin="round" d="M790.467-1408.172l-112.586-.006m55.927 26.084l.006-26.058m17.922 21.544l.006-21.572m17.921 26.064l.006-26.058"/><path fill="none" stroke="#000" stroke-width="14.841" stroke-linecap="round" stroke-linejoin="round" d="M1069.281-1084.78l23.922 59.512 64.047 4.339-49.262 41.119 15.661 62.193-54.368-34.1-54.367 34.1 15.661-62.193-49.262-41.12 64.047-4.338 23.921-59.511z"/><ellipse fill="none" stroke="#000" stroke-width="9.261" stroke-linecap="round" stroke-linejoin="round" transform="matrix(.5075 -.86165 .8703 .49253 0 0)" ry="23.822" rx="23.977" cy="153.211" cx="1796.435"/><ellipse fill="none" stroke="#000" stroke-width="9.261" stroke-linecap="round" stroke-linejoin="round" transform="matrix(.5075 -.86165 .8703 .49253 0 0)" ry="23.822" rx="23.977" cy="218.452" cx="1684.558"/><ellipse fill="none" stroke="#000" stroke-width="9.261" stroke-linecap="round" stroke-linejoin="round" transform="matrix(.5075 -.86165 .8703 .49253 0 0)" ry="23.822" rx="23.977" cy="295.999" cx="1803.47"/><path fill="none" stroke="#000" stroke-width="9.26" stroke-linecap="round" stroke-linejoin="round" d="M1070.603-1459.583l76.633 38.525m-80.648 66.323l84.739-42.6M-2194.117-1048.8l87.929 95.204m-87.929-95.204l-87.928 95.204m452.875-1.789l87.928-95.204m-87.928 95.204l-87.929-95.204m952.424 401.424l95.203-62.485m-95.203 62.485l95.203 62.484"/><path fill="none" stroke="#000" stroke-width="9.26" stroke-linecap="round" d="M-973.985-737.094v175.857"/><path fill="none" stroke="#000" stroke-width="9.26" stroke-linecap="round" stroke-linejoin="round" d="M-512.842-649.165l-95.204-62.485m95.204 62.485l-95.204 62.484"/><path fill="none" stroke="#000" stroke-width="9.26" stroke-linecap="round" d="M-503.533-737.094v175.857"/><ellipse fill="none" stroke="#000" stroke-width="9.26" stroke-linecap="round" stroke-linejoin="round" ry="41.449" rx="41.306" cy="-695.69" cx="-166.923"/><path fill="none" stroke="#000" stroke-width="9.26" stroke-linecap="round" stroke-linejoin="round" d="M-254.63-561.26h175.413m-175.413 0a87.974 86.257 0 01-.268-6.724 87.974 86.257 0 0187.975-86.257 87.974 86.257 0 0187.974 86.257h0a87.974 86.257 0 01-.268 6.726m391.334-115.72c-5.379-20.223-23.863-34.319-45.004-34.319-1.688 0-3.375.09-5.053.272m-39.875 34.013a41.106 41.106 0 00-1.57-.029c-22.902 0-41.467 18.364-41.467 41.017 0 9.847 2.163 21.36 10.074 26.8 42.647 29.32 113.167 29.327 155.81 0 7.91-5.44 10.064-16.953 10.064-26.8 0-22.653-18.565-41.017-41.466-41.017-.523 0-1.047.01-1.57.03m-89.932.033c5.379-20.223 23.863-34.319 45.003-34.319 1.689 0 3.376.09 5.054.272m-483.081-1164.212h175.948v175.948h-175.948z"/><path fill="none" stroke="#000" stroke-width="9.26" stroke-linecap="round" stroke-linejoin="round" d="M-189.597-1810.5h25.929v25.929h-25.929zm53.71 0h25.929v25.929h-25.929zm53.711 0h25.929v25.929h-25.929zm-107.421 57.15h25.929v25.929h-25.929zm53.71 0h25.929v25.929h-25.929zm53.711 0h25.929v25.929h-25.929z"/><path fill="none" stroke="#000" stroke-width="9.26" stroke-linecap="round" stroke-linejoin="round" d="M-210.896-1838.632h175.948v139.344h-175.948z"/><path fill="none" stroke="#000" stroke-width="9.26" stroke-linecap="round" stroke-linejoin="round" stroke-miterlimit="6.2" d="M-1451.745-1867.371h116.03v175.953h-116.03z"/><path fill="none" stroke="#000" stroke-width="9.26" stroke-linecap="round" stroke-linejoin="round" d="M-1517.766-1779.395h132.042m0 0l-38.889 38.051m38.889-38.051l-38.889-38.051"/><path fill="none" stroke="#000" stroke-width="9.26" stroke-linecap="round" stroke-linejoin="round" stroke-miterlimit="6.2" d="M-1027.959-1851.292h116.03v175.953h-116.03z"/><path fill="none" stroke="#000" stroke-width="9.26" stroke-linecap="round" stroke-linejoin="round" d="M-961.937-1763.315h-132.043m0 0l38.89 38.05m-38.89-38.05l38.89-38.051M623.333-649.165h99.06m-99.06-59.185h99.06m-99.06 118.37h99.06m-175.83-59.185h38.456m-38.456-59.185h38.456m-38.456 118.37h38.456m-3135.35-1238.418l-21.048-23.281h-35.36m-32.912 23.28l21.048-23.28h35.36m111.216 144.569h-175.948v-121.288h175.948v121.288zm3460.52-125.077h175.948v105.584H988.493z"/><path fill="none" stroke="#000" stroke-width="9.26" stroke-linecap="round" stroke-linejoin="round" d="M1164.441-1832.187l-175.962-.337 87.691 78.011 88.271-77.674z"/><path fill="none" stroke="#000" stroke-width="9.26" stroke-linecap="round" stroke-linejoin="round" d="M1048.018-1779.233l-59.539 52.967 175.962-.337-59.796-52.617-28.46 25.044-28.167-25.057z"/><path fill="none" stroke="#000" stroke-width="9.26" d="M-941.634-2138.879v-133.063h-42.622v155.068h61.811v-175.943h-83.077v153.938"/><path fill="none" stroke="#000" stroke-width="9.26" stroke-linecap="round" stroke-linejoin="round" d="M977.482-656.303a150.885 154.112 0 0150.689-8.957 150.885 154.112 0 0150.686 8.956M958.823-689.28a187.686 191.7 0 0169.355-13.568 187.686 191.7 0 0169.338 13.561m-157.259-32.841a224.488 229.289 0 0187.901-18.308 224.488 229.289 0 0187.923 18.318"/><ellipse fill="none" stroke="#000" stroke-width="9.26" stroke-linecap="round" stroke-linejoin="round" ry="18.767" rx="18.761" cy="-614.605" cx="1028.169"/></svg>