<svg xmlns="http://www.w3.org/2000/svg" width="42.589" height="40.224" viewBox="0 0 42.589 40.224"><path d="M45.28,17.281H33.433l-4.287,4.287a5.68,5.68,0,0,1-9.694-4.013c0-.092.024-.182.026-.274H5.533a1.418,1.418,0,0,0-1.42,1.42V24.38H46.7V18.7a1.421,1.421,0,0,0-1.422-1.42ZM27.225,19.645l11.96-11.96a1.418,1.418,0,0,0,0-2.009L37.013,3.5A1.427,1.427,0,0,0,35,3.5L23.042,15.462a2.958,2.958,0,0,0,4.183,4.183ZM10.793,41.583a2.377,2.377,0,0,0,2.193,1.725H37.83a2.377,2.377,0,0,0,2.193-1.725l3.6-14.838H7.189l3.6,14.838Z" transform="translate(-4.113 -3.085)" fill="#fff"/></svg>